<?xml version="1.0" standalone="no"?>
<!DOCTYPE svg PUBLIC "-//W3C//DTD SVG 20010904//EN"
 "http://www.w3.org/TR/2001/REC-SVG-20010904/DTD/svg10.dtd">
<svg version="1.0" xmlns="http://www.w3.org/2000/svg"
 width="32px" height="32px" viewBox="30 0 140 130"
 preserveAspectRatio="xMidYMid meet">

<g transform="translate(0.000000,122.000000) scale(0.100000,-0.100000)"
fill="#12f7d6" stroke="none">
<path fill='white' d="M0 610 l0 -610 750 0 750 0 0 219 c0 136 -4 222 -10 226 -6 4 -7 13
-1 24 5 9 10 179 10 384 l1 367 -750 0 -750 0 0 -610z m1130 218 c0 -7 -38
-121 -84 -253 -79 -226 -85 -240 -110 -243 -14 -2 -26 2 -26 8 0 9 137 408
165 483 8 19 55 24 55 5z m-251 -39 c32 -11 37 -23 22 -48 -7 -11 -15 -11 -45
-1 -105 34 -189 -59 -157 -176 17 -63 52 -89 114 -87 29 1 61 3 72 5 14 2 21
-3 23 -19 3 -18 -4 -24 -35 -32 -129 -36 -227 27 -240 152 -13 123 62 216 173
217 23 0 55 -5 73 -11z m-301 -114 c2 -17 -12 -26 -83 -54 l-86 -34 86 -35
c61 -26 85 -40 85 -53 0 -10 -4 -20 -10 -24 -5 -3 -59 15 -120 41 -102 43
-111 49 -108 71 3 21 19 32 103 68 108 47 129 50 133 20z m703 -21 c110 -46
129 -65 97 -92 -18 -13 -218 -96 -222 -91 -2 2 -6 13 -8 24 -2 16 12 25 81 54
l84 35 -45 21 c-25 12 -64 28 -86 37 -34 13 -40 20 -35 37 3 12 10 21 15 21 6
0 59 -21 119 -46z"/>
</g>
</svg>
