<?xml version="1.0" encoding="UTF-8"?>
<svg xmlns="http://www.w3.org/2000/svg" xmlns:xlink="http://www.w3.org/1999/xlink" width="64px" height="64px" viewBox="0 0 64 64" version="1.1">
<g id="surface1">
<path style=" stroke:none;fill-rule:nonzero;fill:rgb(89.411765%,20.392157%,66.666669%);fill-opacity:1;" d="M 9.195312 48.425781 L 6.894531 47.097656 L 32.519531 2.71875 L 34.820312 4.046875 Z M 9.195312 48.425781 "/>
<path style=" stroke:none;fill-rule:nonzero;fill:rgb(89.411765%,20.392157%,66.666669%);fill-opacity:1;" d="M 6.367188 43.550781 L 57.613281 43.550781 L 57.613281 46.207031 L 6.367188 46.207031 Z M 6.367188 43.550781 "/>
<path style=" stroke:none;fill-rule:nonzero;fill:rgb(89.411765%,20.392157%,66.666669%);fill-opacity:1;" d="M 33.015625 59.84375 L 7.382812 45.046875 L 8.710938 42.742188 L 34.34375 57.546875 Z M 55.28125 21.273438 L 29.652344 6.46875 L 30.976562 4.171875 L 56.613281 18.96875 Z M 55.28125 21.273438 "/>
<path style=" stroke:none;fill-rule:nonzero;fill:rgb(89.411765%,20.392157%,66.666669%);fill-opacity:1;" d="M 8.71875 21.261719 L 7.386719 18.960938 L 33.023438 4.160156 L 34.351562 6.460938 Z M 8.71875 21.261719 "/>
<path style=" stroke:none;fill-rule:nonzero;fill:rgb(89.411765%,20.392157%,66.666669%);fill-opacity:1;" d="M 54.808594 48.425781 L 29.1875 4.046875 L 31.488281 2.71875 L 57.113281 47.097656 Z M 8.398438 17.199219 L 11.054688 17.199219 L 11.054688 46.800781 L 8.402344 46.800781 Z M 8.398438 17.199219 "/>
<path style=" stroke:none;fill-rule:nonzero;fill:rgb(89.411765%,20.392157%,66.666669%);fill-opacity:1;" d="M 52.945312 17.199219 L 55.597656 17.199219 L 55.597656 46.800781 L 52.945312 46.800781 Z M 52.945312 17.199219 "/>
<path style=" stroke:none;fill-rule:nonzero;fill:rgb(89.411765%,20.392157%,66.666669%);fill-opacity:1;" d="M 32.566406 58.71875 L 31.40625 56.710938 L 53.699219 43.839844 L 54.859375 45.847656 Z M 32.566406 58.71875 "/>
<path style=" stroke:none;fill-rule:nonzero;fill:rgb(89.411765%,20.392157%,66.666669%);fill-opacity:1;" d="M 59.117188 47.664062 C 57.585938 50.335938 54.160156 51.246094 51.488281 49.714844 C 48.816406 48.175781 47.90625 44.753906 49.441406 42.078125 C 50.976562 39.40625 54.402344 38.496094 57.074219 40.03125 C 59.761719 41.585938 60.671875 44.992188 59.117188 47.664062 M 14.546875 21.921875 C 13.007812 24.59375 9.585938 25.503906 6.910156 23.96875 C 4.238281 22.429688 3.328125 19.007812 4.863281 16.335938 C 6.402344 13.664062 9.824219 12.753906 12.496094 14.285156 C 15.167969 15.839844 16.078125 19.246094 14.546875 21.921875 M 4.882812 47.664062 C 3.34375 44.992188 4.257812 41.585938 6.925781 40.03125 C 9.597656 38.496094 13.007812 39.40625 14.558594 42.078125 C 16.09375 44.753906 15.183594 48.160156 12.511719 49.714844 C 9.824219 51.246094 6.414062 50.335938 4.882812 47.664062 M 49.453125 21.921875 C 47.921875 19.246094 48.832031 15.839844 51.503906 14.285156 C 54.175781 12.753906 57.585938 13.664062 59.136719 16.335938 C 60.671875 19.007812 59.761719 22.414062 57.089844 23.96875 C 54.414062 25.503906 50.992188 24.59375 49.453125 21.921875 M 32 63.328125 C 30.519531 63.328125 29.097656 62.742188 28.050781 61.695312 C 27.003906 60.644531 26.414062 59.226562 26.414062 57.742188 C 26.414062 56.261719 27.003906 54.839844 28.050781 53.792969 C 29.097656 52.746094 30.519531 52.160156 32 52.160156 C 33.480469 52.160156 34.902344 52.746094 35.949219 53.792969 C 36.996094 54.839844 37.585938 56.261719 37.585938 57.742188 C 37.585938 60.816406 35.089844 63.328125 32 63.328125 M 32 11.839844 C 30.519531 11.839844 29.097656 11.253906 28.050781 10.207031 C 27.003906 9.160156 26.414062 7.738281 26.414062 6.257812 C 26.414062 4.773438 27.003906 3.355469 28.050781 2.304688 C 29.097656 1.257812 30.519531 0.671875 32 0.671875 C 33.480469 0.671875 34.902344 1.257812 35.949219 2.304688 C 36.996094 3.355469 37.585938 4.773438 37.585938 6.257812 C 37.585938 7.738281 36.996094 9.160156 35.949219 10.207031 C 34.902344 11.253906 33.480469 11.839844 32 11.839844 "/>
</g>
</svg>
