<?xml version="1.0" encoding="UTF-8"?>
<svg xmlns="http://www.w3.org/2000/svg" xmlns:xlink="http://www.w3.org/1999/xlink" width="64px" height="64px" viewBox="0 0 64 64" version="1.1">
<defs>
<linearGradient id="linear0" gradientUnits="userSpaceOnUse" x1="-0.0623404" y1="0.453743" x2="1.03068" y2="0.589748" gradientTransform="matrix(5.914062,0,0,8.171875,46.960938,30.289062)">
<stop offset="0" style="stop-color:rgb(54.117647%,76.862745%,26.27451%);stop-opacity:1;"/>
<stop offset="1" style="stop-color:rgb(45.882353%,72.156863%,26.27451%);stop-opacity:1;"/>
</linearGradient>
<linearGradient id="linear1" gradientUnits="userSpaceOnUse" x1="-0.108014" y1="0.435383" x2="1.10996" y2="0.569856" gradientTransform="matrix(4.625,0,0,7.136719,47.261719,30.574219)">
<stop offset="0" style="stop-color:rgb(45.882353%,72.156863%,26.27451%);stop-opacity:1;"/>
<stop offset="1" style="stop-color:rgb(29.411765%,59.215686%,26.666667%);stop-opacity:1;"/>
</linearGradient>
<linearGradient id="linear2" gradientUnits="userSpaceOnUse" x1="1.085102" y1="0.414578" x2="-0.0327401" y2="0.65747" gradientTransform="matrix(8.777344,0,0,14.476562,51.148437,23.5)">
<stop offset="0" style="stop-color:rgb(75.686275%,85.882353%,45.490196%);stop-opacity:1;"/>
<stop offset="1" style="stop-color:rgb(67.45098%,82.352941%,34.901961%);stop-opacity:1;"/>
</linearGradient>
<linearGradient id="linear3" gradientUnits="userSpaceOnUse" x1="1.290726" y1="0.38386" x2="-0.254127" y2="0.619185" gradientTransform="matrix(5.9375,0,0,13.078125,53.050781,24.023437)">
<stop offset="0" style="stop-color:rgb(67.45098%,82.352941%,34.901961%);stop-opacity:1;"/>
<stop offset="1" style="stop-color:rgb(54.117647%,76.862745%,26.27451%);stop-opacity:1;"/>
</linearGradient>
</defs>
<g id="surface1">
<path style=" stroke:none;fill-rule:nonzero;fill:rgb(43.921569%,43.921569%,43.529412%);fill-opacity:1;" d="M 43.460938 34.539062 C 43.210938 34.699219 42.949219 34.789062 42.699219 34.789062 C 42.511719 34.789062 42.363281 34.710938 42.238281 34.5625 C 42.125 34.414062 42.0625 34.226562 42.0625 33.988281 C 42.0625 33.636719 42.148438 33.175781 42.324219 32.585938 L 42.824219 30.886719 L 44 30.800781 L 44.25 29.636719 L 43.1875 29.699219 L 43.976562 27.074219 L 41.949219 27.488281 L 41.238281 29.851562 L 40.511719 29.875 L 40.273438 31.0625 L 40.851562 31.039062 L 40.523438 32.1875 C 40.375 32.699219 40.261719 33.148438 40.199219 33.550781 C 39.601562 34.164062 39.148438 34.550781 38.851562 34.726562 C 38.550781 34.898438 38.226562 34.988281 37.898438 34.988281 C 37.050781 34.988281 36.523438 34.5 36.324219 33.511719 C 38.539062 32.863281 39.648438 32.011719 39.648438 30.976562 C 39.648438 30.585938 39.511719 30.261719 39.226562 30.023438 C 38.9375 29.789062 38.5625 29.664062 38.101562 29.664062 C 37.199219 29.664062 36.375 30.101562 35.636719 30.960938 C 34.960938 31.75 34.601562 32.613281 34.539062 33.574219 C 33.925781 34.175781 33.460938 34.574219 33.164062 34.761719 C 32.851562 34.960938 32.5625 35.0625 32.289062 35.0625 C 32.023438 35.0625 31.800781 34.9375 31.648438 34.675781 C 31.488281 34.414062 31.414062 34.074219 31.414062 33.636719 C 31.414062 33.4375 31.4375 33.074219 31.476562 32.5625 C 32.488281 31.476562 33.226562 30.4375 33.699219 29.476562 C 34.175781 28.511719 34.414062 27.511719 34.414062 26.488281 C 34.414062 26.125 34.363281 25.835938 34.273438 25.625 C 34.1875 25.414062 34.0625 25.300781 33.914062 25.300781 C 33.886719 25.300781 33.835938 25.3125 33.773438 25.324219 L 31.851562 26 C 31.199219 27.25 30.636719 28.613281 30.175781 30.101562 C 29.761719 31.4375 29.539062 32.613281 29.5 33.601562 C 28.699219 34.5625 27.960938 35.039062 27.289062 35.039062 C 26.800781 35.039062 26.425781 34.773438 26.175781 34.25 L 26.8125 31.085938 C 27.851562 30.125 28.550781 29.324219 28.925781 28.675781 C 29.300781 28.023438 29.488281 27.335938 29.488281 26.636719 C 29.488281 26.226562 29.425781 25.898438 29.300781 25.648438 C 29.175781 25.398438 29.023438 25.273438 28.835938 25.273438 C 28.8125 25.273438 28.625 25.324219 28.273438 25.414062 C 27.925781 25.5 27.585938 25.601562 27.273438 25.6875 C 26.960938 25.789062 26.773438 25.886719 26.6875 26 C 26.613281 26.113281 26.414062 26.523438 26.101562 27.261719 C 25.789062 28 25.550781 28.664062 25.386719 29.273438 C 25.210938 29.875 24.988281 30.863281 24.726562 32.210938 L 23.460938 33.523438 L 23.460938 33.511719 C 23.039062 33.9375 22.699219 34.261719 22.460938 34.460938 C 22.226562 34.675781 22.011719 34.773438 21.8125 34.773438 C 21.5 34.773438 21.351562 34.5625 21.351562 34.125 C 21.351562 33.710938 21.523438 32.949219 21.863281 31.835938 L 22.523438 29.625 L 22.101562 29.625 L 20.550781 30.476562 C 20.300781 29.898438 19.863281 29.601562 19.226562 29.601562 C 18.726562 29.601562 18.148438 29.8125 17.5 30.238281 C 16.851562 30.664062 16.3125 31.210938 15.898438 31.898438 C 15.574219 32.4375 15.375 32.988281 15.3125 33.5625 C 14.738281 34.136719 14.300781 34.523438 14 34.699219 C 13.699219 34.875 13.375 34.960938 13.050781 34.960938 C 12.199219 34.960938 11.675781 34.476562 11.476562 33.488281 C 13.6875 32.835938 14.800781 31.988281 14.800781 30.949219 C 14.800781 30.5625 14.664062 30.238281 14.375 30 C 14.085938 29.761719 13.710938 29.636719 13.25 29.636719 C 12.351562 29.636719 11.523438 30.074219 10.789062 30.9375 C 10.113281 31.726562 9.75 32.601562 9.6875 33.5625 C 8.949219 34.375 8.175781 34.789062 7.363281 34.789062 C 6.9375 34.789062 6.4375 34.675781 5.851562 34.449219 C 5.261719 34.226562 4.8125 34.074219 4.5 33.988281 C 4.1875 33.914062 3.8125 33.886719 3.386719 33.914062 C 4.050781 33.226562 4.488281 32.523438 4.738281 31.8125 C 4.976562 31.101562 5.148438 30.289062 5.25 29.363281 C 5.351562 28.4375 5.449219 27.773438 5.539062 27.363281 C 5.625 26.949219 5.789062 26.601562 6.011719 26.300781 C 6.238281 26 6.5625 25.851562 6.976562 25.851562 C 7.3125 25.851562 7.585938 25.976562 7.789062 26.226562 C 7.988281 26.476562 8.085938 26.8125 8.085938 27.25 C 8.085938 27.8125 7.960938 28.300781 7.699219 28.710938 C 7.4375 29.125 7.136719 29.324219 6.800781 29.324219 C 6.585938 29.324219 6.425781 29.25 6.289062 29.085938 C 6.226562 29.300781 6.199219 29.476562 6.199219 29.636719 C 6.199219 29.9375 6.289062 30.175781 6.476562 30.351562 C 6.664062 30.523438 6.898438 30.613281 7.226562 30.613281 C 7.835938 30.613281 8.375 30.3125 8.835938 29.726562 C 9.300781 29.125 9.539062 28.4375 9.539062 27.648438 C 9.539062 26.960938 9.3125 26.398438 8.863281 25.960938 C 8.414062 25.523438 7.851562 25.300781 7.148438 25.300781 C 6.136719 25.300781 5.199219 25.800781 4.335938 26.8125 C 3.476562 27.8125 3 29.210938 2.914062 30.988281 C 2.863281 31.851562 2.800781 32.460938 2.726562 32.835938 C 2.648438 33.210938 2.460938 33.601562 2.175781 33.988281 C 1.488281 34.101562 0.960938 34.300781 0.585938 34.585938 C 0.210938 34.875 0.0234375 35.210938 0.0234375 35.601562 C 0.0234375 35.789062 0.0859375 35.9375 0.210938 36.0625 C 0.335938 36.1875 0.5 36.25 0.6875 36.25 C 1.238281 36.25 1.851562 35.875 2.539062 35.136719 C 2.898438 35.238281 3.324219 35.398438 3.8125 35.625 C 4.289062 35.851562 4.699219 36 5.039062 36.101562 C 5.375 36.1875 5.726562 36.238281 6.085938 36.238281 C 7.335938 36.238281 8.550781 35.636719 9.75 34.425781 C 9.835938 34.886719 10.023438 35.289062 10.335938 35.601562 C 10.761719 36.039062 11.3125 36.261719 12 36.261719 C 12.613281 36.261719 13.175781 36.113281 13.6875 35.8125 C 14.175781 35.523438 14.726562 35.074219 15.335938 34.488281 C 15.386719 34.925781 15.539062 35.3125 15.773438 35.636719 C 16.085938 36.050781 16.460938 36.261719 16.898438 36.261719 C 17.351562 36.261719 17.789062 36.085938 18.226562 35.75 C 18.648438 35.414062 19.113281 34.875 19.625 34.148438 C 19.574219 35.550781 19.949219 36.261719 20.75 36.261719 C 21.0625 36.261719 21.398438 36.148438 21.75 35.914062 C 22.101562 35.675781 22.675781 35.1875 23.476562 34.414062 L 23.988281 33.851562 C 24.125 34.238281 24.226562 34.476562 24.289062 34.574219 C 23.886719 36.773438 23.613281 38.5625 23.449219 39.949219 C 24.1875 39.800781 24.8125 39.699219 25.335938 39.625 C 25.5 38.335938 25.6875 37.148438 25.898438 36.039062 C 26.238281 36.1875 26.5 36.25 26.6875 36.25 C 27.085938 36.25 27.550781 36.085938 28.0625 35.773438 C 28.5625 35.460938 29.0625 35.023438 29.574219 34.460938 C 29.636719 34.925781 29.789062 35.3125 30.039062 35.625 C 30.363281 36.039062 30.800781 36.25 31.335938 36.25 C 31.800781 36.25 32.300781 36.101562 32.8125 35.800781 C 33.324219 35.5 33.925781 35.039062 34.613281 34.398438 C 34.699219 34.875 34.886719 35.261719 35.199219 35.585938 C 35.625 36.023438 36.175781 36.25 36.863281 36.25 C 37.476562 36.25 38.039062 36.101562 38.550781 35.800781 C 39.039062 35.511719 39.585938 35.0625 40.199219 34.476562 C 40.226562 34.976562 40.363281 35.386719 40.601562 35.699219 C 40.875 36.0625 41.226562 36.25 41.648438 36.25 C 42.0625 36.25 42.511719 36.101562 42.976562 35.800781 C 43.4375 35.5 43.988281 35.039062 44.625 34.398438 L 44.625 33.523438 C 44.085938 34.023438 43.710938 34.375 43.460938 34.539062 Z M 32.726562 27.523438 C 33.074219 26.601562 33.351562 26.136719 33.539062 26.136719 C 33.625 26.136719 33.6875 26.199219 33.75 26.3125 C 33.800781 26.425781 33.835938 26.574219 33.835938 26.761719 C 33.835938 27.398438 33.636719 28.164062 33.238281 29.039062 C 32.835938 29.925781 32.324219 30.710938 31.675781 31.425781 C 32.011719 29.75 32.363281 28.449219 32.726562 27.523438 Z M 27.835938 26.925781 C 28.0625 26.351562 28.289062 26.050781 28.511719 26.050781 C 28.625 26.050781 28.726562 26.113281 28.800781 26.25 C 28.875 26.386719 28.914062 26.5625 28.914062 26.773438 C 28.914062 27.273438 28.75 27.824219 28.414062 28.414062 C 28.074219 29 27.613281 29.5625 27.023438 30.074219 C 27.335938 28.550781 27.613281 27.5 27.835938 26.925781 Z M 12.8125 30.25 C 13.164062 30.25 13.335938 30.488281 13.335938 30.976562 C 13.335938 31.949219 12.6875 32.625 11.398438 32.988281 C 11.398438 32.175781 11.550781 31.511719 11.851562 31.011719 C 12.148438 30.511719 12.476562 30.25 12.8125 30.25 Z M 19.335938 33.511719 C 18.886719 34.375 18.414062 34.800781 17.914062 34.800781 C 17.699219 34.800781 17.539062 34.710938 17.398438 34.550781 C 17.261719 34.386719 17.199219 34.164062 17.199219 33.886719 C 17.199219 33.164062 17.425781 32.375 17.875 31.523438 C 18.324219 30.664062 18.800781 30.238281 19.3125 30.238281 C 19.523438 30.238281 19.6875 30.3125 19.824219 30.476562 C 19.949219 30.636719 20.011719 30.851562 20.011719 31.136719 C 20 31.863281 19.773438 32.648438 19.335938 33.511719 Z M 37.664062 30.25 C 38.011719 30.25 38.1875 30.488281 38.1875 30.976562 C 38.1875 31.949219 37.539062 32.625 36.25 32.988281 C 36.25 32.175781 36.398438 31.511719 36.699219 31.011719 C 37.011719 30.5 37.335938 30.25 37.664062 30.25 Z M 37.664062 30.25 "/>
<path style=" stroke:none;fill-rule:nonzero;fill:url(#linear0);" d="M 47.175781 30.289062 C 47.335938 30.476562 50.425781 31.5 51.488281 32.75 C 52.5625 34 53.023438 35.113281 52.875 36.1875 C 52.726562 37.261719 52.0625 37.238281 51.789062 37.636719 C 51.5 38.023438 51.101562 38.511719 50.351562 38.460938 C 49.351562 38.398438 48.324219 37.898438 47.585938 36.175781 C 46.851562 34.449219 46.898438 32.824219 46.960938 31.925781 C 47.011719 31.011719 47.175781 30.289062 47.175781 30.289062 Z M 47.175781 30.289062 "/>
<path style=" stroke:none;fill-rule:nonzero;fill:url(#linear1);" d="M 47.261719 30.574219 L 51.886719 37.476562 L 51.675781 37.710938 Z M 47.261719 30.574219 "/>
<path style=" stroke:none;fill-rule:nonzero;fill:rgb(23.921569%,23.921569%,23.529412%);fill-opacity:1;" d="M 29.550781 40.164062 L 29.585938 39.863281 C 30.824219 39.199219 32.351562 38.949219 33.601562 38.3125 C 33.976562 38.476562 34.136719 38.238281 34.539062 38.261719 C 34.6875 38.386719 34.351562 38.5625 34.75 38.539062 C 35.636719 38.648438 36.511719 38.488281 37.386719 38.414062 C 38.3125 38.335938 39.226562 38.425781 40.136719 38.363281 C 40.425781 38.351562 40.875 37.949219 41.226562 38.148438 C 41.386719 38.4375 40.699219 38.460938 40.886719 38.789062 C 42.699219 39.210938 47.238281 41.011719 48.011719 39.050781 C 48.023438 39.175781 47.875 39.398438 48.085938 39.375 C 49.613281 38.6875 52.210938 37.210938 52.675781 36.824219 C 53.175781 36.398438 53.851562 36.414062 54.5 36.261719 C 55.6875 35.988281 56.949219 35.710938 57.976562 35.113281 C 58.613281 35.550781 59.9375 35.773438 60.636719 35.613281 C 61.375 35.449219 62.523438 34.226562 63.136719 33.789062 C 63.375 33.613281 63.738281 33.289062 63.988281 33.476562 C 63.8125 33.601562 64.011719 33.949219 63.800781 33.886719 C 63.6875 33.675781 63.460938 33.925781 63.300781 33.875 C 62.6875 34.386719 62.039062 34.863281 61.414062 35.351562 C 61.113281 35.523438 61.699219 35.710938 61.351562 35.773438 C 59.726562 36.101562 57.238281 35.289062 56.210938 36.414062 C 54.585938 36.976562 53.050781 37.113281 51.449219 37.976562 C 50.523438 38.476562 49.398438 39.375 48.4375 39.851562 C 48.273438 39.925781 48.039062 39.960938 47.851562 40.074219 C 47.613281 40.210938 47.5625 40.398438 47.363281 40.4375 C 46.875 40.539062 45.863281 40.289062 45.210938 40.199219 C 43.085938 39.886719 40.8125 39.023438 38.800781 38.914062 C 38 38.875 37.0625 39 36.164062 39.039062 C 34.25 39.125 33.0625 39.175781 31.523438 39.6875 C 30.925781 39.898438 29.949219 40.460938 29.550781 40.164062 Z M 29.550781 40.164062 "/>
<path style=" stroke:none;fill-rule:nonzero;fill:url(#linear2);" d="M 59.074219 23.5 C 58.863281 23.851562 53.960938 26.375 52.5 28.738281 C 51.023438 31.113281 50.613281 32.976562 51.148438 34.726562 C 51.6875 36.476562 52.699219 36.398438 53.273438 36.976562 C 53.851562 37.550781 54.636719 38.25 55.898438 37.976562 C 57.550781 37.601562 59.136719 36.5 59.925781 33.425781 C 60.710938 30.351562 60.199219 27.648438 59.863281 26.164062 C 59.523438 24.675781 59.074219 23.5 59.074219 23.5 Z M 59.074219 23.5 "/>
<path style=" stroke:none;fill-rule:nonzero;fill:url(#linear3);" d="M 58.988281 24.023438 L 53.050781 36.75 L 53.398438 37.101562 Z M 58.988281 24.023438 "/>
</g>
</svg>
