<?xml version="1.0" encoding="UTF-8"?>
<svg xmlns="http://www.w3.org/2000/svg" xmlns:xlink="http://www.w3.org/1999/xlink" width="64px" height="64px" viewBox="0 0 64 64" version="1.1">
<g id="surface1">
<path style=" stroke:none;fill-rule:nonzero;fill:rgb(46.27451%,29.019609%,73.725492%);fill-opacity:1;" d="M 43.574219 43.113281 C 45.789062 42.886719 47.46875 41.011719 47.390625 38.757812 C 47.316406 36.507812 45.40625 34.703125 43.117188 34.703125 L 42.960938 34.703125 C 40.59375 34.78125 38.761719 36.730469 38.839844 39.058594 C 38.917969 40.183594 39.375 41.160156 40.0625 41.835938 C 37.464844 46.863281 33.496094 50.542969 27.539062 53.621094 C 23.492188 55.722656 19.292969 56.472656 15.09375 55.949219 C 11.660156 55.496094 8.984375 53.996094 7.304688 51.519531 C 4.863281 47.839844 4.632812 43.863281 6.695312 39.882812 C 8.144531 37.03125 10.4375 34.929688 11.886719 33.878906 C 11.582031 32.902344 11.125 31.25 10.894531 30.050781 C -0.175781 37.933594 0.96875 48.59375 4.328125 53.621094 C 6.847656 57.375 11.964844 59.703125 17.613281 59.703125 C 19.140625 59.703125 20.667969 59.550781 22.195312 59.175781 C 31.96875 57.300781 39.375 51.59375 43.574219 43.113281 Z M 57.011719 33.804688 C 51.210938 27.121094 42.65625 23.445312 32.882812 23.445312 L 31.664062 23.445312 C 30.976562 22.09375 29.523438 21.191406 27.921875 21.191406 L 27.769531 21.191406 C 25.402344 21.265625 23.570312 23.21875 23.644531 25.546875 C 23.722656 27.796875 25.628906 29.601562 27.921875 29.601562 L 28.074219 29.601562 C 29.753906 29.523438 31.203125 28.472656 31.816406 27.046875 L 33.191406 27.046875 C 38.992188 27.046875 44.488281 28.699219 49.453125 31.925781 C 53.269531 34.402344 56.019531 37.632812 57.546875 41.535156 C 58.84375 44.6875 58.769531 47.765625 57.394531 50.394531 C 55.253906 54.371094 51.667969 56.546875 46.933594 56.546875 C 43.878906 56.546875 40.976562 55.648438 39.449219 54.972656 C 38.609375 55.722656 37.082031 56.925781 36.015625 57.675781 C 39.296875 59.175781 42.65625 60.003906 45.863281 60.003906 C 53.195312 60.003906 58.613281 56.023438 60.675781 52.042969 C 62.890625 47.691406 62.738281 40.183594 57.011719 33.804688 Z M 18.222656 44.386719 C 18.300781 46.640625 20.210938 48.441406 22.5 48.441406 L 22.652344 48.441406 C 25.019531 48.367188 26.851562 46.414062 26.777344 44.085938 C 26.699219 41.835938 24.789062 40.035156 22.5 40.035156 L 22.347656 40.035156 C 22.195312 40.035156 21.964844 40.035156 21.8125 40.109375 C 18.683594 35.003906 17.386719 29.449219 17.84375 23.445312 C 18.148438 18.941406 19.675781 15.035156 22.347656 11.808594 C 24.5625 9.03125 28.835938 7.679688 31.738281 7.605469 C 39.832031 7.453125 43.269531 17.363281 43.496094 21.34375 C 44.488281 21.566406 46.167969 22.09375 47.316406 22.46875 C 46.398438 10.308594 38.761719 4.003906 31.433594 4.003906 C 24.5625 4.003906 18.222656 8.882812 15.703125 16.085938 C 12.191406 25.695312 14.484375 34.929688 18.757812 42.210938 C 18.378906 42.738281 18.148438 43.5625 18.222656 44.386719 Z M 18.222656 44.386719 "/>
</g>
</svg>
