<?xml version="1.0" encoding="UTF-8"?>
<svg xmlns="http://www.w3.org/2000/svg" xmlns:xlink="http://www.w3.org/1999/xlink" width="64px" height="64px" viewBox="0 0 64 64" version="1.1">
<g id="surface1">
<path style=" stroke:none;fill-rule:nonzero;fill:rgb(52.156866%,91.764706%,17.647059%);fill-opacity:1;" d="M 32 62.472656 C 15.195312 62.472656 1.523438 48.800781 1.523438 31.996094 C 1.523438 15.195312 15.195312 1.523438 32 1.523438 C 48.804688 1.523438 62.476562 15.195312 62.476562 32 C 62.476562 48.800781 48.804688 62.472656 32 62.472656 Z M 32 62.472656 "/>
<path style=" stroke:none;fill-rule:nonzero;fill:rgb(9.019608%,21.176471%,27.843139%);fill-opacity:1;" d="M 20.148438 21.65625 C 20.050781 22.75 20.1875 23.882812 20.113281 24.988281 C 20.027344 26.097656 19.890625 27.191406 19.667969 28.289062 C 19.363281 29.851562 18.390625 31.03125 17.050781 32.015625 C 19.660156 33.714844 19.953125 36.347656 20.125 39.019531 C 20.210938 40.457031 20.175781 41.910156 20.324219 43.335938 C 20.433594 44.445312 20.863281 44.726562 22.007812 44.765625 C 22.476562 44.777344 22.957031 44.765625 23.496094 44.765625 L 23.496094 48.183594 C 20.113281 48.761719 17.320312 47.804688 16.628906 44.9375 C 16.402344 43.882812 16.265625 42.8125 16.210938 41.738281 C 16.136719 40.59375 16.261719 39.449219 16.175781 38.304688 C 15.929688 35.167969 15.523438 34.109375 12.523438 33.960938 L 12.523438 30.058594 C 12.742188 30.011719 12.953125 29.972656 13.171875 29.949219 C 14.820312 29.863281 15.523438 29.359375 15.878906 27.734375 C 16.050781 26.820312 16.152344 25.894531 16.1875 24.964844 C 16.3125 23.179688 16.261719 21.359375 16.570312 19.589844 C 17 17.042969 18.574219 15.8125 21.195312 15.664062 C 21.933594 15.625 22.683594 15.664062 23.535156 15.664062 L 23.535156 19.15625 C 23.175781 19.183594 22.867188 19.230469 22.550781 19.230469 C 20.421875 19.15625 20.308594 19.882812 20.148438 21.65625 Z M 24.246094 29.753906 L 24.199219 29.753906 C 22.96875 29.691406 21.910156 30.648438 21.847656 31.882812 C 21.785156 33.125 22.746094 34.183594 23.976562 34.242188 L 24.125 34.242188 C 25.34375 34.316406 26.386719 33.382812 26.460938 32.164062 L 26.460938 32.039062 C 26.488281 30.796875 25.488281 29.777344 24.246094 29.753906 Z M 31.960938 29.753906 C 30.769531 29.714844 29.773438 30.648438 29.734375 31.832031 C 29.734375 31.90625 29.734375 31.96875 29.746094 32.039062 C 29.746094 33.382812 30.65625 34.242188 32.035156 34.242188 C 33.390625 34.242188 34.238281 33.359375 34.238281 31.96875 C 34.226562 30.625 33.328125 29.738281 31.960938 29.753906 Z M 39.863281 29.753906 C 38.605469 29.730469 37.5625 30.722656 37.523438 31.980469 C 37.523438 32.578125 37.761719 33.15625 38.1875 33.582031 C 38.609375 34.007812 39.1875 34.246094 39.789062 34.242188 L 39.8125 34.242188 C 40.945312 34.441406 42.089844 33.34375 42.164062 32.027344 C 42.226562 30.808594 41.117188 29.753906 39.863281 29.753906 Z M 50.703125 29.9375 C 49.277344 29.875 48.5625 29.394531 48.207031 28.042969 C 47.984375 27.175781 47.847656 26.289062 47.800781 25.394531 C 47.703125 23.746094 47.714844 22.085938 47.601562 20.4375 C 47.34375 16.523438 44.515625 15.15625 40.40625 15.835938 L 40.40625 19.230469 C 41.054688 19.230469 41.5625 19.230469 42.066406 19.242188 C 42.941406 19.253906 43.605469 19.585938 43.691406 20.558594 C 43.777344 21.445312 43.777344 22.34375 43.863281 23.242188 C 44.035156 25.027344 44.132812 26.835938 44.441406 28.59375 C 44.710938 30.046875 45.707031 31.128906 46.949219 32.015625 C 44.773438 33.480469 44.132812 35.570312 44.023438 37.921875 C 43.960938 39.535156 43.925781 41.160156 43.839844 42.78125 C 43.765625 44.257812 43.246094 44.738281 41.757812 44.777344 C 41.339844 44.789062 40.933594 44.824219 40.464844 44.851562 L 40.464844 48.332031 C 41.339844 48.332031 42.140625 48.382812 42.941406 48.332031 C 45.425781 48.183594 46.925781 46.980469 47.417969 44.566406 C 47.628906 43.238281 47.75 41.898438 47.789062 40.554688 C 47.875 39.324219 47.863281 38.082031 47.984375 36.863281 C 48.167969 34.957031 49.042969 34.171875 50.949219 34.046875 C 51.128906 34.023438 51.308594 33.984375 51.480469 33.925781 L 51.480469 30.023438 C 51.160156 29.988281 50.9375 29.949219 50.703125 29.9375 Z M 32 3.050781 C 47.988281 3.050781 60.949219 16.011719 60.949219 32 C 60.949219 47.988281 47.988281 60.949219 32 60.949219 C 16.011719 60.949219 3.050781 47.988281 3.050781 32 C 3.050781 16.011719 16.011719 3.050781 32 3.050781 M 32 0 C 14.355469 0 0 14.355469 0 32 C 0 49.644531 14.355469 64 32 64 C 49.644531 64 64 49.644531 64 32 C 64 14.355469 49.644531 0 32 0 Z M 32 0 "/>
</g>
</svg>
