<?xml version="1.0" encoding="UTF-8"?>
<svg xmlns="http://www.w3.org/2000/svg" xmlns:xlink="http://www.w3.org/1999/xlink" width="64px" height="64px" viewBox="0 0 64 64" version="1.1">
<g id="surface1">
<path style=" stroke:none;fill-rule:nonzero;fill:rgb(0%,0%,0%);fill-opacity:1;" d="M 8.109375 7.882812 C 7.9375 7.882812 7.777344 7.964844 7.671875 8.101562 C 7.566406 8.238281 7.53125 8.414062 7.570312 8.582031 L 19.769531 57.953125 C 19.816406 58.148438 19.964844 58.304688 20.160156 58.359375 C 20.351562 58.414062 20.5625 58.363281 20.707031 58.222656 L 57.402344 22.929688 C 57.546875 22.789062 57.605469 22.582031 57.558594 22.386719 C 57.507812 22.191406 57.359375 22.035156 57.164062 21.980469 L 8.273438 7.902344 C 8.222656 7.886719 8.164062 7.878906 8.109375 7.882812 Z M 8.902344 9.257812 L 55.914062 22.792969 L 20.628906 56.730469 Z M 8.902344 9.257812 "/>
<path style=" stroke:none;fill-rule:nonzero;fill:rgb(0%,0%,0%);fill-opacity:1;" d="M 32.570312 14.921875 C 32.417969 14.917969 32.273438 14.972656 32.164062 15.078125 L 13.828125 32.730469 C 13.683594 32.871094 13.621094 33.078125 13.671875 33.273438 C 13.71875 33.46875 13.867188 33.625 14.0625 33.679688 L 38.492188 40.71875 C 38.6875 40.777344 38.894531 40.722656 39.039062 40.585938 C 39.183594 40.445312 39.246094 40.238281 39.195312 40.042969 L 33.105469 15.347656 C 33.042969 15.101562 32.824219 14.925781 32.570312 14.921875 Z M 32.242188 16.570312 L 37.867188 39.363281 L 15.316406 32.863281 Z M 32.242188 16.570312 "/>
<path style=" stroke:none;fill-rule:nonzero;fill:rgb(0%,0%,0%);fill-opacity:1;" d="M 23.457031 23.65625 C 23.285156 23.660156 23.125 23.742188 23.019531 23.875 C 22.914062 24.011719 22.878906 24.1875 22.917969 24.355469 L 25.945312 36.621094 C 25.996094 36.816406 26.144531 36.972656 26.335938 37.027344 C 26.53125 37.085938 26.742188 37.03125 26.886719 36.894531 L 35.996094 28.113281 C 36.140625 27.972656 36.203125 27.765625 36.152344 27.570312 C 36.105469 27.375 35.953125 27.21875 35.761719 27.164062 L 23.621094 23.679688 C 23.570312 23.664062 23.511719 23.65625 23.457031 23.65625 Z M 24.25 25.03125 L 34.507812 27.976562 L 26.808594 35.398438 Z M 24.25 25.03125 "/>
<path style=" stroke:none;fill-rule:nonzero;fill:rgb(0%,0%,0%);fill-opacity:1;" d="M 20.449219 11.40625 C 20.300781 11.402344 20.15625 11.457031 20.046875 11.5625 L 10.9375 20.34375 C 10.792969 20.484375 10.730469 20.691406 10.78125 20.886719 C 10.828125 21.082031 10.980469 21.238281 11.171875 21.292969 L 23.308594 24.777344 C 23.503906 24.832031 23.710938 24.78125 23.855469 24.640625 C 24 24.5 24.0625 24.292969 24.011719 24.097656 L 20.988281 11.835938 C 20.925781 11.585938 20.707031 11.410156 20.449219 11.402344 Z M 20.125 13.054688 L 22.683594 23.421875 L 12.425781 20.476562 Z M 44.726562 18.398438 C 44.578125 18.394531 44.429688 18.449219 44.324219 18.554688 L 35.210938 27.335938 C 35.066406 27.476562 35.007812 27.683594 35.054688 27.878906 C 35.105469 28.074219 35.253906 28.230469 35.449219 28.285156 L 47.585938 31.769531 C 47.777344 31.824219 47.988281 31.773438 48.132812 31.632812 C 48.277344 31.492188 48.335938 31.285156 48.289062 31.089844 L 45.261719 18.824219 C 45.203125 18.578125 44.980469 18.402344 44.726562 18.394531 Z M 44.402344 20.046875 L 46.957031 30.414062 L 36.699219 27.46875 Z M 26.472656 35.933594 C 26.332031 35.9375 26.203125 35.992188 26.101562 36.089844 L 16.992188 44.871094 C 16.847656 45.011719 16.785156 45.21875 16.835938 45.414062 C 16.882812 45.609375 17.03125 45.765625 17.226562 45.820312 L 29.367188 49.304688 C 29.558594 49.359375 29.769531 49.308594 29.914062 49.167969 C 30.058594 49.027344 30.117188 48.820312 30.070312 48.625 L 27.042969 36.359375 C 26.976562 36.101562 26.738281 35.921875 26.472656 35.933594 Z M 26.179688 37.582031 L 28.738281 47.949219 L 18.480469 45.003906 Z M 26.179688 37.582031 "/>
</g>
</svg>
